Coordinates
version=1
nRows=21
nColumns=38
inDegrees=no

Units are S.I. units (second, meters, Newtons, ...)
If the header above contains a line with 'inDegrees', this indicates whether rotational values are in degrees (yes) or radians (no).

endheader
time	pelvis_tilt	pelvis_list	pelvis_rotation	pelvis_tx	pelvis_ty	pelvis_tz	hip_flexion_r	hip_adduction_r	hip_rotation_r	knee_angle_r	ankle_angle_r	subtalar_angle_r	mtp_angle_r	hip_flexion_l	hip_adduction_l	hip_rotation_l	knee_angle_l	ankle_angle_l	subtalar_angle_l	mtp_angle_l	lumbar_extension	lumbar_bending	lumbar_rotation	arm_flex_r	arm_add_r	arm_rot_r	elbow_flex_r	pro_sup_r	wrist_flex_r	wrist_dev_r	arm_flex_l	arm_add_l	arm_rot_l	elbow_flex_l	pro_sup_l	wrist_flex_l	wrist_dev_l
35	0.455551	1.43009	1.10941	0.757678	0.116388	0.998494	0.141414	-0.00697409	-0.166212	0.177932	0.0609589	0	0	0.0350517	-0.115338	0.669145	0	-0.698132	0	0	0.0939214	0.0845188	-0.0332258	0.0811177	-0.147254	0.0522103	0.363981	1.45791	0	0	0.0223923	-0.169358	0.320051	0.495384	1.44125	0	0
35.01	0.453411	1.42987	1.1114	0.757641	0.116512	0.998451	0.14168	-0.00722716	-0.165985	0.177942	0.061148	0	0	0.0352623	-0.115068	0.669033	0	-0.698132	0	0	0.0938771	0.0843615	-0.0327771	0.0810024	-0.147589	0.0529162	0.363277	1.45901	0	0	0.0218282	-0.169376	0.319168	0.494776	1.44154	0	0
35.02	0.451876	1.42966	1.11275	0.7576	0.116659	0.998414	0.141804	-0.0073645	-0.16573	0.17776	0.0612028	0	0	0.0353785	-0.114924	0.669316	0	-0.698132	0	0	0.0937223	0.0842801	-0.032263	0.0808249	-0.147811	0.0523794	0.363131	1.45872	0	0	0.0211955	-0.169484	0.31838	0.494355	1.44204	0	0
35.03	0.449948	1.42929	1.11452	0.757563	0.116767	0.99837	0.142219	-0.00749236	-0.165906	0.177944	0.0614123	0	0	0.0357052	-0.11481	0.669807	0	-0.698132	0	0	0.0937137	0.0841946	-0.0317711	0.0805246	-0.148126	0.0516018	0.363512	1.45723	0	0	0.0205241	-0.169724	0.318028	0.494076	1.44174	0	0
35.04	0.448172	1.42906	1.11604	0.757536	0.116883	0.998343	0.142411	-0.00765203	-0.165878	0.177981	0.0615778	0	0	0.0358599	-0.114597	0.66949	0	-0.698132	0	0	0.0934775	0.0840675	-0.0311707	0.0804378	-0.148311	0.0501008	0.363182	1.46037	0	0	0.0198678	-0.169857	0.317015	0.493977	1.44267	0	0
35.05	0.446038	1.42871	1.11801	0.757466	0.117036	0.998303	0.142695	-0.00779153	-0.165724	0.177821	0.0616045	0	0	0.036205	-0.114409	0.669715	0	-0.698132	0	0	0.0933402	0.0839451	-0.0306918	0.0803435	-0.148617	0.0494066	0.363155	1.46148	0	0	0.0191753	-0.170018	0.31621	0.493872	1.44281	0	0
35.06	0.444563	1.42839	1.11905	0.757496	0.116972	0.998309	0.142684	-0.00781847	-0.165656	0.17749	0.0616104	0	0	0.0361876	-0.114335	0.670419	0	-0.698132	0	0	0.0932465	0.0838192	-0.0300391	0.0800922	-0.148955	0.0495972	0.363026	1.46368	0	0	0.0182535	-0.170235	0.315093	0.493405	1.44291	0	0
35.07	0.439642	1.42728	1.12464	0.75728	0.117205	0.998184	0.144225	-0.00824613	-0.165821	0.177594	0.0616382	0	0	0.0379033	-0.114083	0.673714	0	-0.698132	0	0	0.0937977	0.0836769	-0.0303432	0.0801712	-0.149418	0.048455	0.363064	1.46352	0	0	0.0178517	-0.170316	0.314479	0.493396	1.44299	0	0
35.08	0.412462	1.42396	1.15942	0.755946	0.115996	0.997822	0.149372	-0.0128748	-0.162773	0.175733	0.0596536	0	0	0.0474444	-0.108874	0.659925	0	-0.698132	0	0	0.091976	0.0824303	-0.0362345	0.0851224	-0.15335	0.0491221	0.364846	1.46147	0	0	0.0243818	-0.168457	0.316207	0.495809	1.44219	0	0
35.09	0.432393	1.4263	1.13139	0.757109	0.117428	0.998055	0.145996	-0.00913285	-0.165917	0.178786	0.062551	0	0	0.0390838	-0.113266	0.674162	0	-0.698132	0	0	0.0935172	0.0831578	-0.0290009	0.0801323	-0.150163	0.048349	0.362895	1.46082	0	0	0.0166242	-0.171096	0.314309	0.494567	1.4422	0	0
35.1	0.405031	1.42274	1.16665	0.755925	0.11616	0.997663	0.151215	-0.0139277	-0.162535	0.176496	0.060152	0	0	0.0490507	-0.107814	0.659403	0	-0.698132	0	0	0.0915513	0.0819591	-0.0350762	0.0851387	-0.154439	0.0502228	0.36492	1.45801	0	0	0.0236405	-0.169203	0.316493	0.497096	1.44155	0	0
35.11	0.400255	1.42153	1.17164	0.75579	0.116133	0.997552	0.152894	-0.0144203	-0.162901	0.177121	0.0604471	0	0	0.050539	-0.107524	0.663472	0	-0.698132	0	0	0.0921091	0.0818126	-0.0348043	0.0848986	-0.154593	0.0480345	0.364605	1.46003	0	0	0.0231912	-0.169485	0.316219	0.497296	1.44215	0	0
35.12	0.418682	1.42462	1.14478	0.7567	0.117788	0.997803	0.148924	-0.0110239	-0.165506	0.179916	0.0634015	0	0	0.0416495	-0.111388	0.675031	0	-0.698132	0	0	0.0925762	0.0822633	-0.0270466	0.0798343	-0.151959	0.0502928	0.363443	1.45653	0	0	0.0160214	-0.172198	0.314827	0.495936	1.44146	0	0
35.13	0.390877	1.42056	1.18074	0.755492	0.116352	0.997413	0.15482	-0.0159446	-0.162813	0.178258	0.0612731	0	0	0.0519747	-0.106094	0.664989	0	-0.698132	0	0	0.0914419	0.0809148	-0.0335207	0.0846919	-0.155936	0.0502336	0.365177	1.45868	0	0	0.0227144	-0.17044	0.316721	0.497906	1.44093	0	0
35.14	0.385583	1.42009	1.186	0.75531	0.116374	0.997352	0.155721	-0.0168892	-0.16261	0.17872	0.0617011	0	0	0.0527232	-0.105219	0.665382	0	-0.698132	0	0	0.0909604	0.0803162	-0.0329173	0.0848006	-0.15661	0.0512029	0.365285	1.45817	0	0	0.0227436	-0.170925	0.31682	0.497957	1.44038	0	0
35.15	0.404539	1.42447	1.15744	0.756286	0.118054	0.997709	0.150103	-0.0136767	-0.16445	0.180988	0.0645124	0	0	0.0420282	-0.108689	0.67167	0	-0.698132	0	0	0.0900596	0.0802835	-0.0239939	0.0796958	-0.154015	0.0560985	0.36449	1.45053	0	0	0.0156658	-0.173989	0.315198	0.49645	1.43962	0	0
35.16	0.374276	1.4189	1.19677	0.754709	0.116635	0.997184	0.158086	-0.0186997	-0.162375	0.180004	0.0626659	0	0	0.0543184	-0.103812	0.668016	0	-0.698132	0	0	0.0905009	0.0791178	-0.03134	0.0840986	-0.158119	0.0573816	0.366463	1.44796	0	0	0.0223755	-0.172149	0.316742	0.498385	1.43977	0	0
35.17	0.365862	1.41865	1.20528	0.754304	0.116702	0.997113	0.159139	-0.02036	-0.161243	0.180485	0.063021	0	0	0.0554259	-0.102004	0.6619	0	-0.698132	0	0	0.0891315	0.0780898	-0.0308432	0.0842894	-0.160158	0.067534	0.368434	1.43225	0	0	0.0231962	-0.173046	0.318532	0.499302	1.43585	0	0
35.18	0.380441	1.42115	1.18225	0.75553	0.118111	0.997363	0.156476	-0.0174852	-0.164481	0.184563	0.0666648	0	0	0.0472021	-0.105727	0.676711	0	-0.698132	0	0	0.0903542	0.0780561	-0.0226337	0.0798956	-0.155197	0.0525322	0.364485	1.45628	0	0	0.0162816	-0.175739	0.314957	0.497119	1.43972	0	0
35.19	0.348557	1.41605	1.22306	0.753705	0.116628	0.996855	0.164209	-0.0233655	-0.161167	0.18382	0.0646281	0	0	0.0592943	-0.0996433	0.666286	0	-0.698132	0	0	0.0894462	0.0764018	-0.0295592	0.0851161	-0.159731	0.0533618	0.366667	1.45497	0	0	0.0240563	-0.173878	0.316532	0.499488	1.43883	0	0
35.2	0.383231	1.45985	1.14397	0.757932	0.121077	0.999981	0.111779	-0.0295818	-0.133647	0.174369	0.0684161	0	0	0.00131195	-0.0802905	0.403843	0	-0.698132	0	0	0.0480425	0.0637436	0.0154038	0.0728459	-0.188882	0.280738	0.405197	1.10963	0	0	0.0193592	-0.21446	0.495538	0.541621	1.05789	0	0
